<?xml version="1.0" encoding="UTF-8" standalone="no"?>
<!-- Created with Inkscape (http://www.inkscape.org/) -->

<svg
   xmlns:dc="http://purl.org/dc/elements/1.1/"
   xmlns:cc="http://creativecommons.org/ns#"
   xmlns:rdf="http://www.w3.org/1999/02/22-rdf-syntax-ns#"
   xmlns:svg="http://www.w3.org/2000/svg"
   xmlns="http://www.w3.org/2000/svg"
   xmlns:sodipodi="http://sodipodi.sourceforge.net/DTD/sodipodi-0.dtd"
   xmlns:inkscape="http://www.inkscape.org/namespaces/inkscape"
   width="128"
   height="256"
   id="svg2"
   version="1.1"
   inkscape:version="0.91pre2 r13516"
   viewBox="0 0 128 256"
   sodipodi:docname="lights.svg"
   inkscape:export-filename="E:\_Dokumenty_Patryk_1\Haxe\fuzzyLighty\assets\images\lights_green.png"
   inkscape:export-xdpi="90"
   inkscape:export-ydpi="90">
  <defs
     id="defs4" />
  <sodipodi:namedview
     id="base"
     pagecolor="#ffffff"
     bordercolor="#666666"
     borderopacity="1.0"
     inkscape:pageopacity="0.0"
     inkscape:pageshadow="2"
     inkscape:zoom="1.4"
     inkscape:cx="-7.3615498"
     inkscape:cy="119.9571"
     inkscape:document-units="px"
     inkscape:current-layer="layer1"
     showgrid="false"
     inkscape:window-width="888"
     inkscape:window-height="403"
     inkscape:window-x="803"
     inkscape:window-y="-9"
     inkscape:window-maximized="0"
     inkscape:snap-object-midpoints="true">
    <inkscape:grid
       type="xygrid"
       id="grid4137" />
  </sodipodi:namedview>
  <metadata
     id="metadata7">
    <rdf:RDF>
      <cc:Work
         rdf:about="">
        <dc:format>image/svg+xml</dc:format>
        <dc:type
           rdf:resource="http://purl.org/dc/dcmitype/StillImage" />
        <dc:title></dc:title>
      </cc:Work>
    </rdf:RDF>
  </metadata>
  <g
     inkscape:label="Layer 1"
     inkscape:groupmode="layer"
     id="layer1"
     transform="translate(0,-796.3622)">
    <path
       style="stroke:#800080;stroke-width:5;stroke-miterlimit:4;stroke-dasharray:none;fill:#00ff00"
       d="M 64 179.04688 A 27.226891 27.226891 0 0 0 62.074219 179.11523 A 27.226891 27.226891 0 0 0 59.373047 179.44336 A 27.226891 27.226891 0 0 0 56.716797 180.03906 A 27.226891 27.226891 0 0 0 54.134766 180.89648 A 27.226891 27.226891 0 0 0 51.650391 182.00781 A 27.226891 27.226891 0 0 0 49.289062 183.36328 A 27.226891 27.226891 0 0 0 47.076172 184.94531 A 27.226891 27.226891 0 0 0 45.03125 186.74219 A 27.226891 27.226891 0 0 0 43.175781 188.73242 A 27.226891 27.226891 0 0 0 41.529297 190.90039 A 27.226891 27.226891 0 0 0 40.105469 193.2207 A 27.226891 27.226891 0 0 0 38.921875 195.66992 A 27.226891 27.226891 0 0 0 37.988281 198.22656 A 27.226891 27.226891 0 0 0 37.316406 200.86328 A 27.226891 27.226891 0 0 0 36.908203 203.55469 A 27.226891 27.226891 0 0 0 36.773438 206.27344 A 27.226891 27.226891 0 0 0 36.841797 208.19922 A 27.226891 27.226891 0 0 0 37.169922 210.90039 A 27.226891 27.226891 0 0 0 37.765625 213.55664 A 27.226891 27.226891 0 0 0 38.623047 216.13867 A 27.226891 27.226891 0 0 0 39.734375 218.62305 A 27.226891 27.226891 0 0 0 41.089844 220.98438 A 27.226891 27.226891 0 0 0 42.671875 223.19727 A 27.226891 27.226891 0 0 0 44.46875 225.24219 A 27.226891 27.226891 0 0 0 46.458984 227.09766 A 27.226891 27.226891 0 0 0 48.626953 228.74414 A 27.226891 27.226891 0 0 0 50.947266 230.16602 A 27.226891 27.226891 0 0 0 53.396484 231.35156 A 27.226891 27.226891 0 0 0 55.953125 232.2832 A 27.226891 27.226891 0 0 0 58.591797 232.95703 A 27.226891 27.226891 0 0 0 61.28125 233.36328 A 27.226891 27.226891 0 0 0 64 233.5 A 27.226891 27.226891 0 0 0 65.925781 233.43164 A 27.226891 27.226891 0 0 0 68.626953 233.10352 A 27.226891 27.226891 0 0 0 71.283203 232.50781 A 27.226891 27.226891 0 0 0 73.865234 231.65039 A 27.226891 27.226891 0 0 0 76.349609 230.53711 A 27.226891 27.226891 0 0 0 78.710938 229.18359 A 27.226891 27.226891 0 0 0 80.923828 227.60156 A 27.226891 27.226891 0 0 0 82.96875 225.80469 A 27.226891 27.226891 0 0 0 84.824219 223.8125 A 27.226891 27.226891 0 0 0 86.470703 221.64648 A 27.226891 27.226891 0 0 0 87.894531 219.32617 A 27.226891 27.226891 0 0 0 89.078125 216.875 A 27.226891 27.226891 0 0 0 90.011719 214.31836 A 27.226891 27.226891 0 0 0 90.683594 211.68164 A 27.226891 27.226891 0 0 0 91.091797 208.99219 A 27.226891 27.226891 0 0 0 91.226562 206.27344 A 27.226891 27.226891 0 0 0 91.158203 204.34766 A 27.226891 27.226891 0 0 0 90.830078 201.64453 A 27.226891 27.226891 0 0 0 90.234375 198.99023 A 27.226891 27.226891 0 0 0 89.376953 196.4082 A 27.226891 27.226891 0 0 0 88.265625 193.92383 A 27.226891 27.226891 0 0 0 86.910156 191.5625 A 27.226891 27.226891 0 0 0 85.328125 189.34766 A 27.226891 27.226891 0 0 0 83.53125 187.30469 A 27.226891 27.226891 0 0 0 81.541016 185.44922 A 27.226891 27.226891 0 0 0 79.373047 183.80273 A 27.226891 27.226891 0 0 0 77.052734 182.37891 A 27.226891 27.226891 0 0 0 74.603516 181.19531 A 27.226891 27.226891 0 0 0 72.046875 180.26172 A 27.226891 27.226891 0 0 0 69.408203 179.58984 A 27.226891 27.226891 0 0 0 66.71875 179.18164 A 27.226891 27.226891 0 0 0 64 179.04688 z "
       id="path4152"
       transform="translate(0,796.3622)" />
    <path
       style="stroke:#800080;stroke-width:5;stroke-miterlimit:4;stroke-dasharray:none"
       d="M 0 0 L 0 256 L 128 256 L 128 0 L 0 0 z M 64 179.04688 A 27.226891 27.226891 0 0 1 66.71875 179.18164 A 27.226891 27.226891 0 0 1 69.408203 179.58984 A 27.226891 27.226891 0 0 1 72.046875 180.26172 A 27.226891 27.226891 0 0 1 74.603516 181.19531 A 27.226891 27.226891 0 0 1 77.052734 182.37891 A 27.226891 27.226891 0 0 1 79.373047 183.80273 A 27.226891 27.226891 0 0 1 81.541016 185.44922 A 27.226891 27.226891 0 0 1 83.53125 187.30469 A 27.226891 27.226891 0 0 1 85.328125 189.34766 A 27.226891 27.226891 0 0 1 86.910156 191.5625 A 27.226891 27.226891 0 0 1 88.265625 193.92383 A 27.226891 27.226891 0 0 1 89.376953 196.4082 A 27.226891 27.226891 0 0 1 90.234375 198.99023 A 27.226891 27.226891 0 0 1 90.830078 201.64453 A 27.226891 27.226891 0 0 1 91.158203 204.34766 A 27.226891 27.226891 0 0 1 91.226562 206.27344 A 27.226891 27.226891 0 0 1 91.091797 208.99219 A 27.226891 27.226891 0 0 1 90.683594 211.68164 A 27.226891 27.226891 0 0 1 90.011719 214.31836 A 27.226891 27.226891 0 0 1 89.078125 216.875 A 27.226891 27.226891 0 0 1 87.894531 219.32617 A 27.226891 27.226891 0 0 1 86.470703 221.64648 A 27.226891 27.226891 0 0 1 84.824219 223.8125 A 27.226891 27.226891 0 0 1 82.96875 225.80469 A 27.226891 27.226891 0 0 1 80.923828 227.60156 A 27.226891 27.226891 0 0 1 78.710938 229.18359 A 27.226891 27.226891 0 0 1 76.349609 230.53711 A 27.226891 27.226891 0 0 1 73.865234 231.65039 A 27.226891 27.226891 0 0 1 71.283203 232.50781 A 27.226891 27.226891 0 0 1 68.626953 233.10352 A 27.226891 27.226891 0 0 1 65.925781 233.43164 A 27.226891 27.226891 0 0 1 64 233.5 A 27.226891 27.226891 0 0 1 61.28125 233.36328 A 27.226891 27.226891 0 0 1 58.591797 232.95703 A 27.226891 27.226891 0 0 1 55.953125 232.2832 A 27.226891 27.226891 0 0 1 53.396484 231.35156 A 27.226891 27.226891 0 0 1 50.947266 230.16602 A 27.226891 27.226891 0 0 1 48.626953 228.74414 A 27.226891 27.226891 0 0 1 46.458984 227.09766 A 27.226891 27.226891 0 0 1 44.46875 225.24219 A 27.226891 27.226891 0 0 1 42.671875 223.19727 A 27.226891 27.226891 0 0 1 41.089844 220.98438 A 27.226891 27.226891 0 0 1 39.734375 218.62305 A 27.226891 27.226891 0 0 1 38.623047 216.13867 A 27.226891 27.226891 0 0 1 37.765625 213.55664 A 27.226891 27.226891 0 0 1 37.169922 210.90039 A 27.226891 27.226891 0 0 1 36.841797 208.19922 A 27.226891 27.226891 0 0 1 36.773438 206.27344 A 27.226891 27.226891 0 0 1 36.908203 203.55469 A 27.226891 27.226891 0 0 1 37.316406 200.86328 A 27.226891 27.226891 0 0 1 37.988281 198.22656 A 27.226891 27.226891 0 0 1 38.921875 195.66992 A 27.226891 27.226891 0 0 1 40.105469 193.2207 A 27.226891 27.226891 0 0 1 41.529297 190.90039 A 27.226891 27.226891 0 0 1 43.175781 188.73242 A 27.226891 27.226891 0 0 1 45.03125 186.74219 A 27.226891 27.226891 0 0 1 47.076172 184.94531 A 27.226891 27.226891 0 0 1 49.289062 183.36328 A 27.226891 27.226891 0 0 1 51.650391 182.00781 A 27.226891 27.226891 0 0 1 54.134766 180.89648 A 27.226891 27.226891 0 0 1 56.716797 180.03906 A 27.226891 27.226891 0 0 1 59.373047 179.44336 A 27.226891 27.226891 0 0 1 62.074219 179.11523 A 27.226891 27.226891 0 0 1 64 179.04688 z "
       id="rect4139"
       transform="translate(0,796.3622)" />
    <circle
       r="27.226891"
       cy="842.63531"
       cx="64"
       id="circle4143"
       style="stroke:#800080;stroke-width:5;stroke-miterlimit:4;stroke-dasharray:none;fill:#000000" />
    <circle
       style="stroke:#800080;stroke-width:5;stroke-miterlimit:4;stroke-dasharray:none;fill:#000000"
       id="circle4147"
       cx="64"
       cy="922.63531"
       r="27.226891" />
    <circle
       r="27.226891"
       cy="924.36218"
       cx="64"
       id="circle4157"
       style="fill:#000000;stroke:#800080;stroke-width:5;stroke-miterlimit:4;stroke-dasharray:none" />
  </g>
</svg>
